<svg version="1.0" xmlns="http://www.w3.org/2000/svg"
 width="254.000000pt" height="153.000000pt" viewBox="0 0 254.000000 153.000000"
 preserveAspectRatio="xMidYMid meet">

<g transform="translate(0.000000,153.000000) scale(0.100000,-0.100000)"
fill="#000000" stroke="none">
<path d="M1115 1524 c-16 -3 -63 -11 -103 -20 -84 -18 -91 -26 -123 -151 -19
-75 -26 -249 -13 -299 4 -15 34 -36 99 -68 144 -71 272 -103 482 -121 l72 -6
30 60 c17 33 43 100 57 148 24 77 27 106 28 238 l1 149 -49 19 c-88 32 -188
49 -321 52 -71 2 -143 1 -160 -1z m332 -69 c43 -8 93 -20 112 -26 l34 -12 -6
-111 c-8 -124 -24 -202 -64 -306 l-27 -70 -51 0 c-128 0 -309 44 -453 111
l-84 39 5 122 c6 148 28 235 64 249 79 30 324 32 470 4z"/>
<path d="M803 719 c-41 -20 -54 -41 -34 -53 5 -3 14 1 21 9 7 8 16 15 20 15
12 0 -31 -144 -46 -153 -10 -6 -13 -18 -9 -41 4 -20 -1 -54 -13 -90 -17 -50
-18 -58 -4 -63 22 -9 40 22 53 89 10 51 14 58 35 58 26 0 30 -11 37 -98 5 -68
25 -91 64 -73 l27 12 -24 12 c-19 10 -26 25 -37 84 l-13 72 46 44 c41 38 47
49 52 96 4 44 1 55 -18 76 -30 32 -97 34 -157 4z m118 -9 c42 -23 13 -141 -41
-170 -27 -14 -60 -4 -60 19 0 10 7 51 16 90 15 64 18 71 41 71 13 0 33 -5 44
-10z"/>
<path d="M1587 693 c-4 -3 -7 -15 -7 -25 0 -26 24 -17 28 10 3 21 -8 29 -21
15z"/>
<path d="M1696 579 c-15 -11 -35 -37 -45 -57 -25 -48 -66 -86 -85 -79 -14 5
-14 11 -1 54 29 92 29 92 7 86 -12 -3 -25 -18 -31 -34 -6 -18 -19 -31 -36 -35
-34 -8 -37 -4 -23 34 13 35 9 46 -15 36 -16 -6 -24 -22 -32 -63 -6 -31 -45
-82 -57 -75 -6 4 -9 31 -5 70 4 51 2 64 -9 64 -8 0 -19 -11 -24 -24 -5 -14
-18 -29 -28 -35 -17 -9 -21 -7 -26 14 -8 31 -32 55 -56 55 -10 0 -37 -18 -60
-40 -48 -46 -60 -49 -60 -17 0 31 -32 60 -61 55 -51 -7 -93 -130 -57 -166 20
-20 58 -13 84 16 13 15 34 38 47 50 l22 24 6 -36 c7 -43 25 -66 51 -66 31 0
54 17 67 48 7 16 23 34 36 40 22 10 24 8 34 -34 16 -62 36 -67 80 -17 26 29
47 43 74 47 37 7 37 7 37 -28 0 -52 31 -66 73 -33 l32 24 18 -23 c20 -26 55
-31 90 -13 29 15 76 59 89 84 7 12 -5 5 -30 -17 -52 -47 -78 -61 -102 -53 -29
9 -24 38 10 63 45 34 65 69 50 87 -17 20 -32 19 -64 -6z m-618 -48 c3 -26 0
-32 -14 -29 -27 5 -40 33 -24 52 19 24 35 14 38 -23z m178 13 c8 -29 -7 -49
-30 -41 -16 6 -22 48 -9 60 14 15 33 6 39 -19z m474 13 c0 -8 -11 -24 -25 -37
-29 -27 -35 -9 -9 28 17 25 34 29 34 9z m-678 -109 c-25 -25 -42 -16 -42 22
l0 28 31 -15 c31 -15 31 -15 11 -35z m171 36 c22 -8 19 -33 -6 -48 -14 -8 -20
-8 -27 4 -14 22 -13 63 3 56 6 -3 20 -9 30 -12z"/>
</g>
</svg>
